<svg width="122" height="127" viewBox="0 0 122 127" fill="none" xmlns="http://www.w3.org/2000/svg">
<g filter="url(#filter0_d_4_9)">
<mask id="mask0_4_9" style="mask-type:alpha" maskUnits="userSpaceOnUse" x="-1" y="-1" width="124" height="129">
<ellipse cx="61" cy="63.5" rx="61" ry="63.5" fill="#F4B41A" stroke="black"/>
</mask>
<g mask="url(#mask0_4_9)">
<path d="M89.4635 61.371C89.4635 61.371 95.8805 61.698 95.8805 57.924C95.8805 52.995 87.3335 48.552 87.3335 48.552C87.3335 48.552 88.6715 45.714 89.5055 44.127C90.3425 42.54 92.6975 36.354 92.9045 34.938C93.1685 33.162 92.7635 32.604 92.7635 32.604C92.1845 36.411 85.9775 47.376 85.4825 47.751C79.4285 44.916 71.1125 44.127 71.1125 44.127C71.1125 44.127 62.9765 27 55.3235 27C47.7305 27 47.7695 41.667 47.7695 41.667C47.7695 41.667 45.6245 37.509 42.9275 37.509C38.9915 37.509 37.6985 43.458 37.6985 49.908C29.9255 49.908 23.3885 51.642 22.8005 51.81C22.2185 51.981 20.3795 53.319 21.2135 53.148C22.9115 52.605 30.9005 51.369 37.8935 51.975C38.2775 58.107 41.8595 66.09 41.8595 66.09C41.8595 66.09 34.1795 77.208 34.1795 85.149C34.1795 87.237 35.0885 91.059 40.6055 91.059C45.2225 91.059 50.4125 88.284 51.3875 87.72C50.5355 88.938 49.9025 91.251 49.9025 92.316C49.9025 93.189 50.4185 95.655 53.9795 95.655C58.5545 95.655 63.6665 92.151 63.6665 92.151C63.6665 92.151 68.4905 100.164 72.6185 103.836C73.7285 104.823 74.7965 105.006 74.7965 105.006C74.7965 105.006 70.6985 101.064 65.2985 90.906C70.3175 87.807 75.5435 80.502 75.5435 80.502C75.5435 80.502 76.1615 80.52 80.9225 80.52C88.3895 80.52 98.9975 78.954 98.9975 73.026C99.0035 66.9 89.4635 61.371 89.4635 61.371ZM90.3005 57.69C90.3005 59.853 88.2395 59.826 88.2395 59.826L86.6765 59.931C86.6765 59.931 83.7005 58.368 81.9035 57.639C81.9035 57.639 84.6935 53.343 85.3475 52.143C85.8395 52.425 90.3005 55.215 90.3005 57.69ZM59.0585 35.628C62.5685 35.628 67.5755 43.902 67.5755 43.902C67.5755 43.902 59.7575 43.203 53.3285 46.98C53.5025 41.025 55.5125 35.628 59.0585 35.628ZM45.1535 42.336C46.2665 42.336 47.3585 43.689 47.8085 44.838C47.8085 45.597 48.2015 50.031 48.2015 50.031L41.7605 49.791C41.7605 43.983 44.0375 42.336 45.1535 42.336ZM44.4845 82.65C40.9625 82.65 40.2365 80.688 40.2365 78.924C40.2365 74.931 43.4285 69.342 43.4285 69.342C43.4285 69.342 47.0015 76.857 53.2505 80.031C50.1515 81.849 47.5925 82.65 44.4845 82.65ZM55.9205 90.519C53.4545 90.519 53.1545 88.923 53.1545 88.548C53.1545 87.399 54.0485 86.049 54.0485 86.049C54.0485 86.049 58.1975 83.247 58.4615 82.947L61.5305 88.662C61.5305 88.662 58.3865 90.519 55.9205 90.519ZM63.6215 87.402C62.1215 84.78 61.0115 82.038 61.0115 82.038C61.0115 82.038 67.1855 82.434 70.4975 79.014C68.4335 79.944 65.1365 81.114 61.2995 80.76C69.3155 73.707 73.9925 68.595 77.9465 63.315C77.6045 62.907 75.7985 61.644 75.3545 61.431C72.9665 64.302 63.6875 74.217 55.0925 79.125C44.2145 73.191 41.9255 55.746 41.6945 52.122L47.6375 52.695C47.6375 52.695 45.4055 56.652 45.4055 59.562C45.4055 62.472 45.7535 62.625 45.7535 62.625C45.7535 62.625 45.6785 57.552 48.8165 53.628C51.2045 66.339 53.6975 72.849 55.6385 76.731C56.6255 76.323 58.4735 75.504 58.4735 75.504C58.4735 75.504 52.9775 59.697 53.2835 48.999C55.7735 47.67 59.4605 46.299 63.6215 46.299C74.5715 46.299 83.3735 51.006 83.3735 51.006L79.9265 55.812C79.9265 55.812 76.8575 50.259 72.5225 49.266C74.8055 50.967 77.3645 53.217 78.6995 56.457C69.6245 52.914 58.6745 51.039 55.1615 50.628C54.8555 51.924 54.8975 53.775 54.8975 53.775C54.8975 53.775 69.5825 56.484 80.2685 62.592C80.1995 75.954 65.6345 86.214 63.6215 87.402ZM77.5295 77.418C77.5295 77.418 82.0895 71.442 82.0175 63.522C82.0175 63.522 89.3825 68.079 89.3825 72.525C89.3855 77.493 77.5295 77.418 77.5295 77.418Z" fill="black"/>
</g>
</g>
<defs>
<filter id="filter0_d_4_9" x="17" y="27" width="85.9975" height="86.006" filterUnits="userSpaceOnUse" color-interpolation-filters="sRGB">
<feFlood flood-opacity="0" result="BackgroundImageFix"/>
<feColorMatrix in="SourceAlpha" type="matrix" values="0 0 0 0 0 0 0 0 0 0 0 0 0 0 0 0 0 0 127 0" result="hardAlpha"/>
<feOffset dy="4"/>
<feGaussianBlur stdDeviation="2"/>
<feComposite in2="hardAlpha" operator="out"/>
<feColorMatrix type="matrix" values="0 0 0 0 0 0 0 0 0 0 0 0 0 0 0 0 0 0 0.25 0"/>
<feBlend mode="normal" in2="BackgroundImageFix" result="effect1_dropShadow_4_9"/>
<feBlend mode="normal" in="SourceGraphic" in2="effect1_dropShadow_4_9" result="shape"/>
</filter>
</defs>
</svg>
